<svg width="181" height="24" viewBox="0 0 181 24" fill="none" xmlns="http://www.w3.org/2000/svg">
<g clip-path="url(#clip0_10312_68049)">
<path d="M90.967 7.74548C91.0767 5.74536 91.8331 4.1109 93.015 2.8358V1.13672H91.4441C88.269 1.13672 85.581 2.29046 84.0184 4.89739H83.927V1.42358H75.7832V22.6085H83.9286V14.0564C83.9286 10.4265 85.0491 7.6588 89.569 7.6588C90.061 7.66195 90.5215 7.68874 90.967 7.74548Z" fill="white"/>
<path d="M152.637 7.66788C153.314 5.79542 154.411 4.12786 155.837 2.78972V1.13477H154.27C151.093 1.13477 148.408 2.2885 146.837 4.89386H146.749V1.4232H138.601V22.6081H146.749V14.056C146.749 10.4261 147.873 7.65842 152.393 7.65842L152.637 7.66788Z" fill="white"/>
<path d="M107.509 6.87374C106.252 6.25432 104.503 5.84137 103.112 5.84137C102.177 5.84137 100.563 6.21018 100.563 7.28669C100.563 8.73359 103.112 8.93849 104.239 9.14969C108.036 9.8495 110.908 11.5029 110.908 15.4212C110.908 20.9944 105.401 23.3145 100.07 23.3145C96.7998 23.3145 93.5831 22.446 90.8037 20.8762L93.7577 15.6276C95.4117 16.7057 98.1878 17.7759 100.203 17.7759C101.233 17.7759 102.754 17.3236 102.754 16.1667C102.754 14.5149 100.203 14.4282 97.6476 13.8103C95.0992 13.1909 92.5508 12.0372 92.5508 8.2371C92.5508 3.03268 97.6476 0.723633 102.671 0.723633C105.268 0.723633 107.866 1.09403 110.233 2.08542L107.509 6.87374Z" fill="white"/>
<path d="M180.266 22.6082H172.121V20.2519H172.031C170.598 22.3576 167.772 23.3064 165.091 23.3064C158.282 23.3064 153.496 18.061 153.496 11.9897C153.496 5.92475 158.197 0.71875 164.999 0.71875C167.639 0.71875 170.419 1.62661 172.119 3.4833V1.42329H180.263L180.266 22.6082ZM161.913 12.0355C161.913 14.718 163.841 16.7828 167.149 16.7828C170.46 16.7828 172.38 14.7212 172.38 12.0355C172.38 9.43324 170.46 7.24556 167.149 7.24556C163.841 7.24713 161.913 9.43324 161.913 12.0355Z" fill="white"/>
<path d="M137.316 13.2776H120.165C120.165 16.3306 121.916 17.9808 125.272 17.9808C127.018 17.9808 128.269 17.4465 129.167 16.0406H137.003C135.705 21.0385 130.555 23.3098 125.319 23.3098C117.714 23.3098 112.028 19.3426 112.028 12.0372C112.028 4.97607 117.26 0.723633 124.735 0.723633C132.703 0.723633 137.319 5.26765 137.319 12.4911L137.316 13.2776ZM129.749 8.93849C129.345 6.91472 127.33 5.59391 125.139 5.59391C122.764 5.59391 120.802 6.74607 120.302 8.93849H129.749Z" fill="white"/>
<path d="M49.8738 11.6664C49.8655 11.4835 49.8522 11.3054 49.8372 11.1242V11.1179C49.6543 9.15241 48.9695 7.31305 47.8075 5.65179C47.2888 4.91101 46.6954 4.238 46.0321 3.63433C45.063 2.75012 43.9409 2.01879 42.6758 1.44034C40.7725 0.578193 38.6696 0.143178 36.4255 0.143178C36.206 0.143178 35.9766 0.14633 35.7456 0.154211C34.1697 0.221985 32.6453 0.50569 31.2124 1.00533C29.7678 1.50024 28.5094 2.15434 27.4804 2.93925C27.271 3.09687 27.0432 3.29073 26.7989 3.50351L26.6226 3.66743L26.3816 3.91016H26.3849L26.2719 4.01576L26.217 4.0725L25.9295 4.35936C25.7167 4.58632 25.5139 4.81329 25.3244 5.03552L25.3227 5.03237L25.316 5.02607C24.9221 5.48 24.558 5.94969 24.2904 6.37209C24.1092 6.64319 23.9313 6.92217 23.7618 7.20114L21.4129 11.7042L21.4162 11.7073L21.2932 11.9359L21.0339 12.4339C20.5185 13.4222 19.9667 14.4073 19.3499 15.2206C17.9752 16.6501 16.4209 17.3499 14.4228 17.3499C14.2831 17.3499 14.1402 17.3436 13.9939 17.3357C12.7903 17.29 11.758 17.0205 10.8421 16.5067C10.744 16.4515 10.6492 16.3948 10.5578 16.3365C9.80976 15.8652 9.23626 15.26 8.80737 14.505C8.32363 13.6491 8.10919 12.7744 8.13911 11.8476C8.14078 11.8224 8.14244 11.8003 8.14244 11.7798C8.20727 10.3046 8.80072 9.15714 9.99595 8.16574C10.2869 7.92774 10.5911 7.726 10.9086 7.54632C10.9535 7.5211 10.9983 7.49746 11.0432 7.47539C11.9309 7.01673 12.9416 6.78819 14.1003 6.78819L14.461 6.79765C16.3012 6.86385 17.7208 7.40919 18.8529 8.47309L22.4036 2.42858C21.5542 1.88954 20.595 1.42616 19.5378 1.04946C19.4979 1.03527 19.4563 1.01951 19.4148 1.0069C19.2884 0.964348 19.1637 0.920216 19.0341 0.880812C17.9103 0.524604 16.7317 0.30552 15.5182 0.206223C15.4883 0.201495 15.4551 0.198343 15.4251 0.19519C15.239 0.184157 15.0495 0.162091 14.8633 0.154211C14.6605 0.14633 14.456 0.143178 14.2565 0.141602H14.1418C11.9093 0.149482 9.8347 0.582921 7.93797 1.44192C5.8135 2.41282 4.09132 3.82662 2.81465 5.64864C1.5413 7.47066 0.846439 9.49285 0.746699 11.6632C0.738387 11.8492 0.7334 12.0336 0.7334 12.2149C0.731738 15.2505 1.8987 17.9205 4.21932 20.1618C6.64135 22.5134 9.79148 23.7806 13.5733 23.9303C13.816 23.9398 14.0554 23.9461 14.2948 23.9461C16.4342 23.9461 18.414 23.5851 20.1894 22.8633C20.6332 22.6836 21.0638 22.4724 21.5043 22.2375C21.7437 22.1067 21.9698 21.968 22.1942 21.8199L22.3604 21.7143L22.6397 21.533C22.9755 21.3045 23.2897 21.057 23.5955 20.7938L23.7019 20.6976C23.8815 20.5353 24.061 20.3714 24.2305 20.2027L24.8672 19.5203L25.1099 19.2318L25.223 19.0742L25.336 18.9198C26.2819 17.413 29.3605 11.9296 29.3605 11.9296V11.9185L29.5434 11.5844L29.6963 11.3228C30.1501 10.5394 30.4776 9.98303 30.9115 9.39828L30.9231 9.38095C31.9355 7.98921 33.6759 6.99782 35.7273 6.83075C39.1683 6.5502 42.1838 8.69375 42.4614 11.6191C42.7374 14.5444 40.1707 17.1434 36.7297 17.4256C36.0132 17.4839 35.3167 17.4382 34.6601 17.3011L34.6434 17.3074C32.1183 16.8093 30.5109 15.0629 29.7179 14.2827L26.4065 20.0562C26.4065 20.0562 27.4355 21.0397 28.1404 21.5314C28.8469 22.0216 29.7595 22.5039 30.4876 22.8034C32.2546 23.5189 34.1763 23.9477 36.2991 23.9477C36.5451 23.9477 36.4953 23.9477 36.7513 23.9382C40.5298 23.7885 43.8977 22.4156 46.3263 20.064C48.627 17.8306 49.8754 15.2804 49.8871 12.2621V12.1723C49.8854 12.0052 49.8804 11.8366 49.8738 11.6664Z" fill="white"/>
<path d="M62.5407 23.3232C60.8235 23.3232 59.2659 23.1341 57.8679 22.7558C56.4698 22.3775 55.2763 21.7802 54.2872 20.9606C53.2948 20.141 52.5301 19.0976 51.9915 17.8319C51.4529 16.5663 51.1836 15.0406 51.1836 13.2627V1.41797H59.0415V13.1681C59.0415 14.4999 59.3773 15.4645 60.0472 16.0666C60.7188 16.6703 61.5715 16.9713 62.6055 16.9713C63.6628 16.9713 64.5205 16.6908 65.1821 16.1281C65.8404 15.5654 66.1729 14.6323 66.1729 13.321V1.41797H74.0308V13.1066C74.0308 14.9476 73.7548 16.5127 73.2046 17.8004C72.6543 19.0897 71.878 20.1425 70.879 20.9621C69.8749 21.7817 68.6664 22.3775 67.2451 22.7574C65.8238 23.1341 64.2562 23.3232 62.5407 23.3232Z" fill="white"/>
</g>
<defs>
<clipPath id="clip0_10312_68049">
<rect width="180" height="24" fill="white" transform="translate(0.5)"/>
</clipPath>
</defs>
</svg>
