<svg width="181" height="30" viewBox="0 0 181 30" fill="none" xmlns="http://www.w3.org/2000/svg">
<g clip-path="url(#clip0_10312_68053)">
<path fill-rule="evenodd" clip-rule="evenodd" d="M0.572266 8.29814C0.572266 7.64112 0.809436 7.15984 1.39841 6.86029L12.5928 0.417957C12.8495 0.288866 13.1323 0.22168 13.419 0.22168C13.7057 0.22168 13.9885 0.288866 14.2451 0.417957L25.4395 6.86029C25.9079 7.09993 26.2657 7.5213 26.2657 8.29814V21.702C26.2657 22.359 26.0325 22.7804 25.4395 23.1399L14.2451 29.5822C13.9885 29.7113 13.7057 29.7785 13.419 29.7785C13.1323 29.7785 12.8495 29.7113 12.5928 29.5822L1.39841 23.1399C0.809436 22.7804 0.572266 22.359 0.572266 21.702V8.29814ZM15.6544 7.38428C16.8894 8.63208 16.8894 10.6552 15.6544 11.903C14.4195 13.1508 12.4172 13.1508 11.1823 11.903C9.94736 10.6552 9.94736 8.63208 11.1823 7.38428C12.4172 6.13647 14.4195 6.13647 15.6544 7.38428ZM13.6336 22.2873C13.6336 16.7276 17.9343 12.2204 23.2469 12.1924C23.2827 12.5454 23.3005 12.9 23.3003 13.2548C23.3003 17.6023 20.6638 21.3088 16.9758 22.7306C15.8369 23.1563 14.6325 23.3747 13.4182 23.3757C12.2037 23.3779 10.9986 23.1595 9.86067 22.7306C6.1707 21.3088 3.53613 17.6023 3.53613 13.2548C3.53597 12.9 3.55378 12.5454 3.5895 12.1924C8.91199 12.2204 13.2206 16.7276 13.2206 22.2873V22.5229H13.6336V22.2873Z" fill="white"/>
<path d="M33.3936 7.05966C33.3925 6.98288 33.4068 6.90668 33.4356 6.83563C33.4644 6.76458 33.5072 6.70016 33.5613 6.64624C33.6154 6.59232 33.6797 6.55002 33.7504 6.52188C33.8211 6.49375 33.8967 6.48036 33.9727 6.48252H36.0638C36.2148 6.48408 36.3591 6.54539 36.4659 6.65329C36.5727 6.76118 36.6334 6.90707 36.6349 7.05966V13.5439L42.6235 6.72216C42.6753 6.64946 42.7432 6.58995 42.8218 6.54835C42.9003 6.50676 42.9874 6.48422 43.0761 6.48252H45.4478C45.5484 6.47886 45.6479 6.50564 45.7334 6.55941C45.8189 6.61319 45.8865 6.69153 45.9277 6.78439C45.9689 6.87726 45.9817 6.98043 45.9645 7.0807C45.9473 7.18097 45.9009 7.27377 45.8312 7.34723L39.6213 14.4086L46.2759 22.4526C46.3337 22.5315 46.3686 22.6253 46.3765 22.7232C46.3844 22.8212 46.3651 22.9194 46.3207 23.0068C46.2763 23.0942 46.2086 23.1674 46.1253 23.218C46.0419 23.2686 45.9462 23.2947 45.849 23.2933H43.2619C43.1827 23.3006 43.103 23.2893 43.0289 23.2601C42.9548 23.231 42.8884 23.185 42.835 23.1256L36.627 15.3932V22.7162C36.6255 22.8687 36.5648 23.0146 36.458 23.1225C36.3512 23.2304 36.2069 23.2917 36.0558 23.2933H33.9727C33.8974 23.2944 33.8226 23.2802 33.7529 23.2516C33.6831 23.2229 33.6197 23.1805 33.5664 23.1267C33.5132 23.0728 33.4712 23.0088 33.4428 22.9383C33.4145 22.8678 33.4005 22.7923 33.4015 22.7162L33.3936 7.05966ZM48.0053 7.01173C48.0141 6.8743 48.0721 6.74482 48.1685 6.64744C48.2649 6.55007 48.393 6.49145 48.529 6.48252H50.454C50.591 6.48798 50.7209 6.54554 50.8177 6.64368C50.9145 6.74182 50.9709 6.87329 50.9758 7.01173V12.8949C51.5233 12.4136 52.4739 11.9583 53.7803 11.9583C57.2747 11.9583 58.2253 14.4086 58.2253 17.1944V22.7661C58.2204 22.9049 58.1636 23.0366 58.0665 23.1348C57.9693 23.233 57.8389 23.2903 57.7016 23.2953H55.7765C55.6383 23.2937 55.5062 23.2374 55.4086 23.1384C55.311 23.0395 55.2558 22.9058 55.2548 22.7661V17.1745C55.2548 15.6388 54.565 14.7022 53.2586 14.7022C51.9522 14.7022 51.2604 15.519 50.9758 16.6473V22.7661C50.9758 23.0796 50.8335 23.2953 50.4066 23.2953H48.529C48.3917 23.2903 48.2613 23.233 48.1641 23.1348C48.0669 23.0366 48.0102 22.9049 48.0053 22.7661V7.01173ZM64.2672 16.2818C64.984 16.2901 65.6965 16.3949 66.3859 16.5934C66.4334 15.1755 66.0302 14.5045 64.8661 14.5045C63.8241 14.5192 62.7871 14.6532 61.775 14.9039C61.4192 15.0237 61.2057 14.7601 61.1583 14.4246L60.9172 13.1805C60.8916 13.113 60.8807 13.0408 60.8852 12.9688C60.8897 12.8967 60.9095 12.8265 60.9433 12.7628C60.977 12.6992 61.0239 12.6436 61.0808 12.5999C61.1377 12.5562 61.2032 12.5253 61.2729 12.5095C62.4934 12.151 63.7571 11.9648 65.0281 11.9563C68.4513 11.9563 69.1628 13.7536 69.1628 16.7831V22.7661C69.1618 22.9058 69.1065 23.0395 69.0089 23.1384C68.9114 23.2374 68.7793 23.2937 68.641 23.2953H67.8327C67.635 23.2953 67.5006 23.2234 67.3564 22.9119L67.048 22.167C66.5937 22.619 66.0551 22.9753 65.4634 23.2153C64.8717 23.4553 64.2387 23.5741 63.6012 23.5649C61.4152 23.5649 59.8934 22.149 59.8934 19.7706C59.8934 17.7936 61.4864 16.2818 64.2672 16.2818ZM64.3384 21.3243C65.3127 21.3243 66.1685 20.5554 66.3148 20.148V18.5145C65.8015 18.298 65.2522 18.1821 64.6961 18.173C63.4351 18.173 62.7454 18.7721 62.7454 19.7566C62.7454 20.6992 63.3166 21.3243 64.3384 21.3243ZM71.6353 12.7272C71.6358 12.5873 71.6909 12.4533 71.7886 12.3542C71.8863 12.2552 72.0187 12.199 72.1571 12.1979H73.0603C73.1636 12.1879 73.267 12.2168 73.3506 12.2791C73.4341 12.3414 73.4919 12.4327 73.5129 12.5354L73.9082 13.5679C74.3393 13.0451 74.8827 12.6284 75.4971 12.3495C76.1115 12.0706 76.7807 11.9368 77.4539 11.9583C80.9482 11.9583 81.8514 14.3347 81.8514 17.0247V22.7661C81.846 22.9047 81.7891 23.0362 81.692 23.1343C81.5949 23.2324 81.4648 23.2899 81.3276 23.2953H79.4026C79.2644 23.2937 79.1322 23.2374 79.0347 23.1384C78.9371 23.0395 78.8819 22.9058 78.8808 22.7661V17.0247C78.8808 15.5849 78.3097 14.6962 76.9795 14.6962C76.4515 14.683 75.9337 14.845 75.5054 15.1573C75.0771 15.4696 74.7618 15.9151 74.6078 16.4256V22.7661C74.6078 23.1755 74.4418 23.2953 73.9181 23.2953H72.159C72.022 23.2898 71.8922 23.2323 71.7954 23.1341C71.6986 23.036 71.6422 22.9045 71.6373 22.7661L71.6353 12.7272ZM87.4723 22.6682L94.8641 6.50649C94.8969 6.42803 94.9519 6.36113 95.0223 6.31422C95.0926 6.26731 95.1751 6.24249 95.2594 6.24288H95.4985C95.5838 6.2378 95.6683 6.26073 95.7396 6.30824C95.8108 6.35576 95.865 6.42531 95.8938 6.50649L103.207 22.6682C103.242 22.7348 103.26 22.8098 103.257 22.8856C103.255 22.9613 103.232 23.0349 103.192 23.0988C103.151 23.1627 103.095 23.2144 103.028 23.2486C102.961 23.2828 102.886 23.2983 102.811 23.2933H100.758C100.402 23.2933 100.236 23.1495 100.07 22.812L98.9039 20.2159H91.7987L90.6346 22.812C90.5841 22.9552 90.4903 23.0787 90.3665 23.165C90.2427 23.2514 90.0952 23.2963 89.9448 23.2933H87.8775C87.802 23.2995 87.7263 23.2851 87.6583 23.2515C87.5904 23.2179 87.5326 23.1664 87.4911 23.1024C87.4496 23.0384 87.426 22.9643 87.4227 22.8879C87.4194 22.8115 87.4365 22.7356 87.4723 22.6682ZM97.7398 17.5539L95.3681 12.2698H95.297L92.9628 17.5539H97.7398ZM109.347 11.9583C111.059 11.9583 112.389 12.7032 113.435 13.8315C113.672 14.0711 113.553 14.3847 113.316 14.6303L112.318 15.7346C112.081 15.9982 111.82 15.8784 111.604 15.6627C111.083 15.1575 110.44 14.7022 109.418 14.7022C107.707 14.7022 106.519 16.0462 106.519 17.7516C106.519 19.4571 107.683 20.825 109.395 20.825C110.606 20.825 111.249 20.154 111.723 19.6008C111.809 19.5044 111.927 19.4436 112.054 19.4303C112.182 19.417 112.309 19.4522 112.413 19.5289L113.482 20.4416C113.745 20.6812 113.863 20.9448 113.68 21.2404C112.753 22.7042 111.28 23.5689 109.331 23.5689C106.122 23.5689 103.533 21.0966 103.533 17.7576C103.525 14.4805 106.09 11.9583 109.347 11.9583ZM119.516 16.2818C120.231 16.2905 120.943 16.3952 121.631 16.5934C121.678 15.1755 121.275 14.5045 120.111 14.5045C119.069 14.5192 118.032 14.6532 117.02 14.9039C116.664 15.0237 116.451 14.7601 116.403 14.4246L116.164 13.1805C116.139 13.1129 116.128 13.0406 116.133 12.9685C116.138 12.8965 116.158 12.8263 116.192 12.7627C116.226 12.6991 116.273 12.6436 116.329 12.5999C116.386 12.5562 116.452 12.5254 116.522 12.5095C117.742 12.151 119.006 11.9648 120.277 11.9563C123.7 11.9563 124.412 13.7536 124.412 16.7831V22.7661C124.411 22.9058 124.355 23.0395 124.258 23.1384C124.16 23.2374 124.028 23.2937 123.89 23.2953H123.081C122.884 23.2953 122.747 23.2234 122.605 22.9119L122.297 22.167C121.842 22.619 121.304 22.9753 120.712 23.2153C120.12 23.4553 119.487 23.5741 118.85 23.5649C116.664 23.5649 115.142 22.149 115.142 19.7706C115.142 17.7936 116.735 16.2818 119.516 16.2818ZM119.587 21.3243C120.561 21.3243 121.417 20.5554 121.564 20.148V18.5145C121.051 18.2983 120.502 18.1824 119.947 18.173C118.688 18.173 117.998 18.7721 117.998 19.7566C117.994 20.6992 118.563 21.3243 119.587 21.3243ZM131.718 11.9583C132.617 11.9627 133.508 12.1165 134.357 12.4136V7.02171C134.366 6.88429 134.424 6.75481 134.52 6.65743C134.616 6.56005 134.745 6.50143 134.881 6.49251H136.806C136.943 6.49796 137.073 6.55553 137.169 6.65367C137.266 6.75181 137.323 6.88327 137.327 7.02171V22.7661C137.326 22.9058 137.271 23.0395 137.174 23.1384C137.076 23.2374 136.944 23.2937 136.806 23.2953H135.926C135.663 23.2953 135.497 23.0796 135.402 22.7661L135.118 21.9014C134.673 22.4229 134.122 22.8414 133.503 23.1285C132.883 23.4155 132.21 23.5644 131.529 23.5649C128.534 23.5649 126.271 21.1086 126.271 17.7456C126.271 14.5045 128.445 11.9583 131.718 11.9583ZM134.357 15.3213C133.668 14.9041 132.879 14.6878 132.076 14.6962C130.27 14.6962 129.343 16.184 129.343 17.7456C129.343 19.3073 130.222 20.819 131.932 20.819C133.359 20.819 134.12 19.9064 134.357 19.2833V15.3213ZM144.767 11.9583C147.619 11.9583 149.805 14.0951 149.805 17.0966C149.805 17.2663 149.781 17.6498 149.757 17.8175C149.743 17.9505 149.683 18.0742 149.588 18.1667C149.492 18.2592 149.367 18.3145 149.235 18.3228H142.199C142.223 19.6907 143.34 20.8909 144.933 20.8909C145.788 20.9064 146.621 20.618 147.287 20.0761C147.547 19.8585 147.832 19.8345 147.998 20.0761L148.925 21.3243C148.975 21.3713 149.014 21.4292 149.04 21.4935C149.065 21.5578 149.076 21.6271 149.071 21.6961C149.067 21.7652 149.047 21.8324 149.013 21.8927C148.98 21.9531 148.934 22.0052 148.878 22.0452C147.742 23.034 146.29 23.5738 144.79 23.5649C141.51 23.5649 139.229 20.9229 139.229 17.7536C139.229 14.6243 141.51 11.9583 144.767 11.9583ZM146.81 16.3517C146.763 15.2693 145.907 14.4306 144.695 14.4306C143.363 14.4306 142.51 15.2454 142.365 16.3517H146.81ZM151.569 12.7272C151.57 12.5873 151.625 12.4533 151.723 12.3542C151.82 12.2552 151.953 12.199 152.091 12.1979H152.947C153.047 12.1877 153.147 12.2136 153.23 12.271C153.313 12.3284 153.373 12.4136 153.4 12.5115L153.795 13.5679C154.194 13.0556 154.705 12.6437 155.288 12.3644C155.871 12.0851 156.51 11.9461 157.155 11.9583C158.748 11.9583 159.527 12.5354 160.434 13.6398C160.91 13.1345 162.003 11.9583 163.975 11.9583C167.493 11.9583 168.324 14.2149 168.324 17.0966V22.7661C168.322 22.8372 168.307 22.9074 168.279 22.9726C168.251 23.0378 168.21 23.0967 168.159 23.1459C168.108 23.1951 168.048 23.2336 167.982 23.2593C167.917 23.2849 167.846 23.2972 167.776 23.2953H165.875C165.737 23.2937 165.604 23.2374 165.507 23.1384C165.409 23.0395 165.354 22.9058 165.353 22.7661V17.0247C165.353 15.5849 164.829 14.6962 163.452 14.6962C161.859 14.6962 161.406 15.8485 161.406 15.8485C161.406 15.8485 161.454 16.4016 161.454 16.9049V22.7661C161.449 22.9045 161.392 23.036 161.295 23.1341C161.199 23.2323 161.069 23.2898 160.932 23.2953H158.983C158.914 23.2969 158.845 23.2844 158.781 23.2584C158.716 23.2323 158.658 23.1934 158.609 23.1439C158.56 23.0945 158.522 23.0355 158.496 22.9705C158.47 22.9056 158.458 22.836 158.459 22.7661V17.0247C158.459 15.5849 158.064 14.6962 156.653 14.6962C155.299 14.6962 154.799 15.6568 154.538 16.4256V22.7661C154.533 22.9045 154.477 23.036 154.38 23.1341C154.283 23.2323 154.153 23.2898 154.016 23.2953H152.089C151.953 23.2894 151.823 23.2316 151.727 23.1335C151.631 23.0354 151.574 22.9042 151.569 22.7661V12.7272ZM169.46 12.9189C169.318 12.5354 169.507 12.1979 169.934 12.1979H172.217C172.317 12.1882 172.417 12.2143 172.499 12.2717C172.581 12.329 172.641 12.414 172.668 12.5115L174.644 19.1395H174.694L177.184 12.5115C177.35 12.2219 177.54 12.1979 177.874 12.1979H179.894C179.981 12.1882 180.07 12.203 180.15 12.2409C180.231 12.2787 180.299 12.3381 180.348 12.4125C180.397 12.487 180.425 12.5736 180.428 12.6629C180.432 12.7522 180.411 12.8407 180.368 12.9189L173.903 28.6732C173.862 28.7678 173.795 28.8492 173.711 28.9083C173.627 28.9675 173.529 29.0022 173.427 29.0087H171.148C171.058 29.0168 170.967 28.9999 170.886 28.9598C170.805 28.9198 170.736 28.8581 170.687 28.7815C170.638 28.7048 170.611 28.6161 170.608 28.5249C170.605 28.4337 170.627 28.3434 170.672 28.2638L172.881 22.6443L169.46 12.9189Z" fill="white"/>
</g>
<defs>
<clipPath id="clip0_10312_68053">
<rect width="180" height="30" fill="white" transform="translate(0.5)"/>
</clipPath>
</defs>
</svg>
