<svg width="118" height="58" viewBox="0 0 118 58" fill="none" xmlns="http://www.w3.org/2000/svg">
<g clip-path="url(#clip0_10312_68051)">
<path d="M34.4449 31.1127L28.2622 22.2768V31.1127H21.8643V10.7782H28.2622V19.3767L34.6143 10.8347H42.1915L34.4035 20.4276L42.3123 31.1127H34.4449Z" fill="white"/>
<path d="M113.364 57.8578C115.435 57.8578 117.113 56.1989 117.113 54.1514C117.113 52.1053 115.435 50.4453 113.364 50.4453C111.294 50.4453 109.615 52.105 109.615 54.1514C109.615 56.1989 111.294 57.8578 113.364 57.8578Z" fill="white"/>
<path d="M48.0917 7.70548C50.1619 7.70548 51.8406 6.04584 51.8406 3.99904C51.8406 1.95223 50.1623 0.292969 48.0917 0.292969C46.0212 0.292969 44.3428 1.95223 44.3428 3.99904C44.3428 6.04584 46.0215 7.70548 48.0917 7.70548Z" fill="white"/>
<path d="M51.2941 10.7773H44.8965V31.1114H51.2941V10.7773Z" fill="white"/>
<path d="M44.7715 47.2971C44.7715 41.2376 48.5166 36.6123 54.4091 36.6123C57.3559 36.6123 59.6692 38.0018 60.7657 40.0621V37.1579H67.1636V57.4363H60.7657V54.5741C59.6692 56.5923 57.1451 57.9826 54.3267 57.9826C48.2678 57.986 44.7715 53.3976 44.7715 47.2971ZM61.0182 47.2971C61.0182 44.3932 59.3752 41.9938 56.1766 41.9938C53.1888 41.9938 51.3354 44.2239 51.3354 47.2971C51.3354 50.3661 53.1854 52.6413 56.1766 52.6413C59.3786 52.6413 61.0182 50.242 61.0182 47.2971Z" fill="white"/>
<path d="M70.9343 37.1569H77.3726V41.4055C78.0885 38.3775 80.4888 36.8213 82.9715 36.8213C83.7291 36.8213 84.1515 36.8627 84.6562 36.9906L84.6223 42.9606C83.8647 42.874 83.518 42.8364 82.7193 42.8364C79.2267 42.8364 77.3726 45.1071 77.3726 49.6078V57.4346H70.9336L70.9343 37.1569Z" fill="white"/>
<path d="M85.959 47.2971C85.959 40.6495 90.2954 36.6123 96.9004 36.6123C103.215 36.6123 107.507 40.5253 107.507 46.2462C107.507 47.2971 107.465 47.9299 107.337 49.0632H92.3528C92.4774 51.715 94.2484 53.1463 97.1086 53.1463C99.0862 53.1463 100.348 52.5999 100.895 51.338H107.21C106.581 55.3342 102.497 57.9856 97.1086 57.9856C90.21 57.9856 85.9601 54.0726 85.9601 47.2971H85.959ZM101.155 45.067C101.113 42.3742 99.5984 40.9429 96.8635 40.9429C94.0865 40.9429 92.4025 42.5853 92.3611 45.067H101.155Z" fill="white"/>
<path d="M61.4491 25.0755V10.7783H55.0098V31.1128H70.6347V25.0755H61.4491Z" fill="white"/>
<path d="M80.565 25.0755V10.7783H74.126V31.1128H89.7513V25.0755H80.565Z" fill="white"/>
<path d="M35.8937 37.1504V44.453H28.1772V37.1504H21.8662V57.4882H28.1772V50.2838H35.8937V57.4882H42.2085V37.1504H35.8937Z" fill="white"/>
<path d="M13.9238 45.3951L9.99014 44.3058C8.65996 43.9108 8.20038 43.3265 8.20038 42.5021C8.20038 41.6017 8.90876 41.0709 9.82453 40.9651C11.1543 40.8109 12.183 41.3873 12.183 42.8223V42.9164H18.9499V42.8223H18.9461C18.9461 38.7735 15.5213 36.54 9.80194 36.54C4.58774 36.54 1.13995 39.0714 1.13995 42.9092C1.13995 45.9862 2.98994 48.0537 6.22619 48.8525L10.2841 49.8695C11.4897 50.2499 11.9756 50.8409 11.9719 51.7676C11.9681 52.7805 10.9507 53.3528 9.91072 53.4021C8.40363 53.4702 7.30719 52.653 7.22401 51.3538H0.600586C0.698449 55.2329 4.49628 57.96 10.1821 57.96C15.5623 57.96 19.0549 55.4741 19.0549 51.2556C19.0511 48.1782 17.1183 46.239 13.9238 45.3951Z" fill="white"/>
<path d="M13.9238 19.0715L9.99014 17.983C8.65996 17.5875 8.20038 17.0036 8.20038 16.1789C8.20038 15.2785 8.90876 14.7476 9.82453 14.6423C11.1543 14.4876 12.183 15.064 12.183 16.4991V16.5931H18.9499V16.4991H18.9461C18.9461 12.4502 15.5213 10.2168 9.80194 10.2168C4.58774 10.2168 1.13995 12.7478 1.13995 16.5856C1.13995 19.6629 2.98994 21.7304 6.22619 22.5288L10.2841 23.5459C11.4897 23.9262 11.9756 24.5177 11.9719 25.444C11.9681 26.4569 10.9507 27.0296 9.91072 27.0785C8.40363 27.1462 7.30719 26.329 7.22401 25.0298H0.600586C0.698449 28.9093 4.49628 31.6356 10.1821 31.6356C15.5623 31.6356 19.0549 29.1501 19.0549 24.9316C19.0519 21.8546 17.1187 19.9154 13.9238 19.0715Z" fill="white"/>
</g>
<defs>
<clipPath id="clip0_10312_68051">
<rect width="117" height="58" fill="white" transform="translate(0.5)"/>
</clipPath>
</defs>
</svg>
