<svg width="181" height="52" viewBox="0 0 181 52" fill="none" xmlns="http://www.w3.org/2000/svg">
<g clip-path="url(#clip0_10312_68055)">
<path fill-rule="evenodd" clip-rule="evenodd" d="M166.317 44.1447H171.453L180.341 21.749H175.256L171.583 32.9028L167.713 21.7487H162.038L168.795 37.9259L166.317 44.1447ZM140.823 27.0654V38.5454H135.641V21.749H139.282L140.364 23.2163C141.774 22.0429 143.283 21.3571 145.021 21.3571C147.35 21.3571 149.121 22.0426 150.203 23.7392C151.777 22.3032 153.451 21.3571 155.583 21.3571C159.584 21.3571 161.913 23.4126 161.913 28.9896V38.5454H156.731V29.5769C156.731 27.0003 155.681 26.2498 154.008 26.2498C153.024 26.2498 152.204 26.5102 151.286 27.0976C151.352 27.6849 151.384 28.3041 151.384 28.9896V38.5454H146.202V29.5769C146.202 27.0003 145.152 26.2498 143.447 26.2498C142.496 26.2498 141.709 26.4783 140.823 27.0654ZM122.749 28.5004H129.408C129.046 26.3158 127.866 25.2715 126.095 25.2715C124.585 25.2715 123.143 26.152 122.749 28.5004ZM126.456 38.872C121.47 38.872 117.468 36.4258 117.468 29.9676C117.468 23.9337 121.339 21.3252 125.8 21.3252C131.178 21.3252 133.573 25.0752 133.573 30.9788H122.716C123.077 33.8814 124.882 34.7301 127.276 34.7301C129.592 34.7301 131.403 34.1616 132.805 33.2238L132.101 37.3116C130.764 38.3392 129.158 38.872 126.456 38.872ZM107.159 34.5344C108.34 34.5344 109.226 34.3381 110.144 33.6536V26.3483C109.324 25.8582 108.505 25.6306 107.324 25.6306C104.798 25.6306 103.355 27.3264 103.355 30.1633C103.355 32.9365 104.831 34.5344 107.159 34.5344ZM111.161 37.3066C109.816 38.3178 108.275 38.9371 106.077 38.9371C101.452 38.9371 98.1075 36.0998 98.1075 30.2615C98.1075 24.456 101.945 21.3252 106.864 21.3252C108.012 21.3252 109.128 21.4884 110.144 21.8794V14.75H115.327V38.5454H112.046L111.161 37.3066ZM76.1497 28.5979V16.1497H81.5283V28.5001C81.5283 32.9359 83.5288 33.8489 86.2842 33.8489C89.2691 33.8489 90.8103 32.5439 90.8103 28.5001V16.1497H96.2222V28.5979C96.2222 35.9366 93.0082 39.0024 86.0224 39.0024C79.5276 39.0024 76.1497 36.3605 76.1497 28.5979Z" fill="white"/>
<path fill-rule="evenodd" clip-rule="evenodd" d="M62.1056 29.5314C61.8941 29.3593 61.643 29.2421 61.3749 29.1902C59.7972 30.7537 57.8721 32.4008 56.1628 33.5077C55.3739 34.0291 54.3819 34.2894 53.7249 34.2894C52.213 34.2894 51.5561 32.8559 51.3587 30.5772C51.0959 27.5167 50.9184 23.8506 50.9184 18.1845C50.9184 12.3731 49.5921 8.42246 46.0588 8.11223C45.9067 8.09812 45.754 8.09068 45.6012 8.08994C43.4323 8.08994 42.3805 9.1968 41.0003 11.9978C39.8175 14.4069 37.9771 17.9238 34.56 24.5664C31.6022 30.2976 28.3162 35.3774 25.4897 38.8943C24.7026 39.8692 24.0805 40.5389 23.4958 40.9197C23.1051 41.1755 22.7299 41.3036 22.3354 41.3036C21.2198 41.3036 20.4053 40.3674 20.1332 38.1874C20.0688 37.6694 20.0345 37.0815 20.0345 36.4192C20.0345 31.9259 21.7438 24.6315 24.7007 13.8858C26.8696 6.07067 25.9499 0.731445 21.2173 0.731445H21.1644L21.161 0.732374C20.0893 0.744759 19.201 1.13053 18.3451 1.80053C17.5023 2.46 16.6589 3.88544 15.8718 5.80131C14.9844 7.9596 9.58837 18.7229 1.00005 24.2677C0.898856 26.3761 2.09912 28.4833 4.53077 28.7118C6.74448 28.9202 8.31618 27.9926 10.34 26.6405C10.0686 27.8438 9.80125 29.048 9.53793 30.2531C9.38381 30.9568 9.28573 31.4094 9.25678 31.5348C8.98965 32.7426 8.78534 33.9633 8.64466 35.1919C7.4335 45.9558 12.4509 51.2675 18.3264 51.2675C19.3085 51.2675 20.2811 51.1511 21.2475 50.9071C27.7212 49.2749 33.9532 41.8907 41.3297 24.8922C41.2179 26.7411 41.2064 28.4682 41.2868 30.071C41.7728 39.8132 45.6479 42.7359 51.1227 42.7359C55.263 42.7359 59.1406 40.5872 61.1121 37.9168C62.5586 36.0282 63.1499 33.9439 63.1499 32.316C63.1499 31.0525 62.7467 30.0434 62.1056 29.5314Z" fill="white"/>
</g>
<defs>
<clipPath id="clip0_10312_68055">
<rect width="180" height="51" fill="white" transform="translate(0.5 0.5)"/>
</clipPath>
</defs>
</svg>
