<svg width="181" height="26" viewBox="0 0 181 26" fill="none" xmlns="http://www.w3.org/2000/svg">
<g clip-path="url(#clip0_10312_68047)">
<path d="M39.3291 13.5368C39.3291 16.8368 40.6249 19.1719 44.4792 19.1719C47.2371 19.1719 48.7988 17.5218 48.7988 17.5218L49.0314 18.3313C49.1311 18.6427 49.264 18.8605 49.6295 18.8605H50.2608C50.5931 18.8605 50.8922 18.5804 50.8922 18.269V6.99876C50.8922 6.68743 50.5931 6.40723 50.2608 6.40723H49.2308C48.8985 6.40723 48.5994 6.68743 48.5994 6.99876V15.3113C48.5994 15.3113 47.1707 17.0859 44.6454 17.0859C42.7847 17.0859 41.655 15.934 41.655 13.5679V6.99876C41.655 6.68743 41.3559 6.40723 41.0237 6.40723H39.9603C39.6281 6.40723 39.3291 6.68743 39.3291 6.99876V13.5368Z" fill="white"/>
<path fill-rule="evenodd" clip-rule="evenodd" d="M74.291 10.9524C70.8685 10.9524 68.9746 12.7271 68.9746 15.0933C68.9746 17.5839 70.7356 19.1717 73.0615 19.1717C75.1217 19.1717 76.484 18.2066 77.1817 17.5528L77.4476 18.3933C77.5472 18.6736 77.6469 18.8603 78.0124 18.8603H78.6437C78.976 18.8603 79.275 18.5802 79.275 18.2689V11.3572C79.275 7.71464 78.4444 6.0957 75.0551 6.0957C72.5631 6.0957 70.636 6.81178 70.4366 6.90517C70.1376 7.02971 69.9382 7.21651 70.071 7.59011L70.3369 8.36844C70.4366 8.64863 70.636 8.8043 70.9682 8.67977C71.5663 8.46183 73.128 7.99484 74.9555 7.99484C76.8494 7.99484 77.1485 9.05336 77.1153 11.3572C77.1153 11.3572 75.7197 10.9524 74.291 10.9524ZM73.4265 17.3037C71.9978 17.3037 71.1006 16.3386 71.1006 15.0932C71.1006 13.4742 72.4297 12.6026 74.2904 12.6026C75.7525 12.6026 76.6829 12.8827 77.0815 13.1007V15.5602C76.5167 16.3386 75.0879 17.3037 73.4265 17.3037Z" fill="white"/>
<path d="M82.3682 12.6649C82.3682 16.4009 85.4914 19.1717 89.1796 19.1717C91.4392 19.1717 93.2667 18.0509 94.2635 16.5565C94.4628 16.2452 94.3631 15.9027 94.0308 15.6848L93.6653 15.4357C93.2999 15.1867 93.0673 15.1244 92.6685 15.498C91.9044 16.1829 91.1401 17.1168 89.1464 17.1168C86.6544 17.1168 84.7605 15.1244 84.7605 12.6337C84.7605 10.143 86.6876 8.21276 89.1796 8.21276C90.4755 8.21276 91.5721 8.8043 92.2366 9.52037C92.5356 9.76943 92.7017 10.0808 93.2001 9.6449L93.8315 9.14677C94.1305 8.92884 94.197 8.55524 93.9644 8.27503C92.7682 6.8429 91.2065 6.0957 89.213 6.0957C85.5912 6.0957 82.3682 8.99109 82.3682 12.6649Z" fill="white"/>
<path fill-rule="evenodd" clip-rule="evenodd" d="M102.775 10.9524C99.3529 10.9524 97.459 12.7271 97.459 15.0933C97.459 17.5839 99.2201 19.1717 101.546 19.1717C103.606 19.1717 104.968 18.2066 105.666 17.5528L105.932 18.3933C106.032 18.6736 106.131 18.8603 106.497 18.8603H107.128C107.46 18.8603 107.759 18.5802 107.759 18.2689V11.3572C107.759 7.71464 106.929 6.0957 103.54 6.0957C101.047 6.0957 99.1204 6.81178 98.921 6.90517C98.6219 7.02971 98.4226 7.21651 98.5555 7.59011L98.8213 8.36844C98.921 8.64863 99.1203 8.8043 99.4526 8.67977C100.051 8.46183 101.612 7.99484 103.44 7.99484C105.334 7.99484 105.633 9.05336 105.6 11.3572C105.6 11.3572 104.204 10.9524 102.775 10.9524ZM101.91 17.3037C100.481 17.3037 99.5842 16.3386 99.5842 15.0932C99.5842 13.4742 100.913 12.6026 102.774 12.6026C104.236 12.6026 105.166 12.8827 105.565 13.1007V15.5602C105 16.3386 103.571 17.3037 101.91 17.3037Z" fill="white"/>
<path fill-rule="evenodd" clip-rule="evenodd" d="M117.233 6.09533C113.246 6.09533 110.854 8.95959 110.854 12.6022C110.854 16.1825 113.512 19.1713 116.901 19.1713C119.393 19.1713 120.988 17.5213 120.988 17.5213L121.187 18.3618C121.253 18.642 121.453 18.86 121.752 18.86H122.449C122.783 18.86 123.081 18.5798 123.081 18.2685V0.591532C123.081 0.2802 122.783 0 122.449 0H121.42C121.088 0 120.788 0.2802 120.788 0.591532V6.9048C120.788 6.9048 119.426 6.09533 117.233 6.09533ZM117.132 17.2097C114.707 17.2097 113.179 15.0616 113.179 12.6332C113.179 10.1425 114.64 8.18108 117.531 8.18108C119.359 8.18108 120.755 8.92828 120.755 8.92828V15.155C120.755 15.155 119.525 17.2097 117.132 17.2097Z" fill="white"/>
<path fill-rule="evenodd" clip-rule="evenodd" d="M132.686 6.0957C128.666 6.0957 126.174 9.11563 126.174 12.6337C126.174 16.214 128.666 19.1717 132.686 19.1717C134.979 19.1717 136.774 18.331 137.571 17.7395C138.069 17.3971 137.936 17.2103 137.704 16.9301C137.604 16.8056 137.513 16.6888 137.421 16.572C137.33 16.4553 137.239 16.3386 137.139 16.214C136.897 15.9017 136.709 16.0037 136.325 16.213C136.288 16.2332 136.249 16.2544 136.209 16.2763C135.444 16.7121 134.315 17.2103 132.919 17.2103C130.56 17.2103 128.6 15.2488 128.467 13.163H138.036C138.336 13.163 138.601 12.945 138.634 12.6337C138.668 12.4157 138.701 12.011 138.701 11.7931C138.701 8.5241 136.176 6.0957 132.686 6.0957ZM136.406 11.4195H128.498C128.731 9.48924 130.459 7.99485 132.685 7.99485C134.712 7.99485 136.306 9.61378 136.406 11.4195Z" fill="white"/>
<path d="M141.796 18.2689C141.796 18.5802 142.094 18.8603 142.428 18.8603H143.457C143.789 18.8603 144.089 18.5802 144.089 18.2689V9.95624C144.089 9.95624 145.517 8.18164 147.877 8.18164C149.903 8.18164 151.033 9.33357 151.033 11.6997V18.2689C151.033 18.5802 151.331 18.8603 151.665 18.8603H152.728C153.06 18.8603 153.358 18.5802 153.358 18.2689V11.6997C153.358 11.0459 153.292 10.4544 153.193 9.9251C153.658 9.52037 155.087 8.18164 157.247 8.18164C159.173 8.18164 160.236 9.3647 160.236 11.6997V18.2689C160.236 18.5802 160.536 18.8603 160.868 18.8603H161.931C162.263 18.8603 162.563 18.5802 162.563 18.2689V11.6997C162.563 8.46183 161.267 6.0957 157.412 6.0957C154.755 6.0957 152.628 7.99484 152.462 8.11937C151.598 6.81178 150.169 6.0957 148.209 6.0957C145.451 6.0957 143.889 7.74577 143.889 7.74577L143.59 6.78064C143.523 6.53157 143.358 6.40704 143.058 6.40704H142.428C142.094 6.40704 141.796 6.68724 141.796 6.99858V18.2689Z" fill="white"/>
<path d="M171.913 18.8294L169.222 25.2222C168.989 25.6581 169.255 26.0005 169.753 26.0005H170.983C171.215 26.0005 171.448 25.8138 171.547 25.6269L180.186 7.1233C180.419 6.71857 180.186 6.40723 179.688 6.40723H178.425C178.193 6.40723 177.96 6.56289 177.861 6.7497L173.209 16.2764L168.258 6.7497C168.159 6.56289 167.958 6.40723 167.692 6.40723H166.231C165.732 6.40723 165.533 6.68743 165.732 7.09216L171.913 18.8294Z" fill="white"/>
<path d="M53.9834 18.2689C53.9834 18.5802 54.2825 18.8603 54.6147 18.8603H55.6448C55.977 18.8603 56.2761 18.5802 56.2761 18.2689V9.95624C56.2761 9.95624 58.0703 8.18164 60.5623 8.18164C62.423 8.18164 63.5528 9.33357 63.5528 11.6997V18.2689C63.5528 18.5802 63.8519 18.8603 64.1841 18.8603H65.2474C65.5796 18.8603 65.8787 18.5802 65.8787 18.2689V11.6997C65.8787 8.46183 64.5828 6.0957 60.7285 6.0957C57.9707 6.0957 56.0767 7.74577 56.0767 7.74577L55.7777 6.78064C55.7112 6.53157 55.545 6.40704 55.246 6.40704H54.6147C54.2825 6.40704 53.9834 6.68724 53.9834 6.99858V18.2689Z" fill="white"/>
<path d="M0.670063 2.41739C1.90474 9.75719 8.69168 15.3704 16.8791 15.3704C24.9837 15.3704 31.7159 9.87022 33.0489 2.63967C33.2196 1.96082 33.2902 1.41864 33.2686 0.95412C33.2686 0.421936 32.8613 0.00878906 32.2967 0.00878906H1.47573C0.911471 0.00878906 0.504387 0.421315 0.503775 0.95292L0.5 0.95278C0.50077 0.964671 0.501554 0.976557 0.502353 0.98844C0.487627 1.39304 0.541837 1.85668 0.670063 2.41739Z" fill="white"/>
<path d="M24.935 24.7724C24.3176 21.1026 20.9241 18.2959 16.8305 18.2959C12.7782 18.2959 9.41202 21.046 8.74553 24.6613C8.66019 25.0008 8.62489 25.2718 8.63568 25.5041C8.63568 25.7701 8.83931 25.9767 9.12165 25.9767H24.5322C24.8142 25.9767 25.0178 25.7705 25.0182 25.5047H25.0199C25.0196 25.4988 25.0192 25.4929 25.0188 25.487C25.0262 25.2846 24.999 25.0528 24.935 24.7724Z" fill="white"/>
</g>
<defs>
<clipPath id="clip0_10312_68047">
<rect width="180" height="26" fill="white" transform="translate(0.5)"/>
</clipPath>
</defs>
</svg>
